<?xml version="1.0" encoding="utf-8"?>
<!-- Generator: Adobe Illustrator 18.1.1, SVG Export Plug-In . SVG Version: 6.00 Build 0)  -->
<!DOCTYPE svg PUBLIC "-//W3C//DTD SVG 1.1 Tiny//EN" "http://www.w3.org/Graphics/SVG/1.1/DTD/svg11-tiny.dtd">
<svg version="1.1" baseProfile="tiny" id="Layer_1" xmlns="http://www.w3.org/2000/svg" xmlns:xlink="http://www.w3.org/1999/xlink"
	 x="0px" y="0px" viewBox="-210 373.7 120.7 22.3" xml:space="preserve">
<g>
	<g>
		<g>
			<path fill="#FFFFFF" d="M-195.6,373.7l-13.5,13.5l5.2,0l8.3,8.3l8.3-8.3l5.2,0L-195.6,373.7z M-198.9,389l3.3-3.3l3.3,3.3
				l-3.3,3.3L-198.9,389z M-191.3,387.9l-4.3-4.3l0,0l-4.3,4.3l-2.5-2.5l6.9-6.9l6.8,6.9L-191.3,387.9z"/>
		</g>
	</g>
	<g>
		<g>
			<g>
				<path fill="#FFFFFF" d="M-170.2,388.7c-0.8,0.8-1.8,1.2-3,1.2c-1.1,0-2.1-0.4-2.8-1.1c-0.5-0.5-0.7-1-0.9-1.6
					c-0.1-0.6-0.2-1.5-0.2-2.6c0-1.1,0.1-2,0.2-2.6c0.1-0.6,0.4-1.1,0.9-1.6c0.8-0.8,1.7-1.1,2.8-1.1c2.4,0,3.7,1.5,3.9,3.3h-2.1
					c-0.2-1-0.9-1.5-1.9-1.5c-0.5,0-1,0.2-1.3,0.6c-0.4,0.5-0.5,0.9-0.5,2.9c0,2.1,0.1,2.5,0.5,3c0.3,0.4,0.7,0.5,1.3,0.5
					c0.6,0,1.1-0.2,1.5-0.6c0.3-0.4,0.5-0.8,0.5-1.4v-0.4h-1.9V384h3.9v1.5C-169.2,387-169.5,387.9-170.2,388.7z"/>
				<path fill="#FFFFFF" d="M-160.4,389.8l-0.6-1.8h-3.7l-0.6,1.8h-2.1l3.8-10.5h1.6l3.8,10.5H-160.4z M-162.8,382.4l-1.3,3.8h2.6
					L-162.8,382.4z"/>
				<path fill="#FFFFFF" d="M-153,389.9c-1.6,0-2.8-0.3-3.8-1.4l1.3-1.3c0.7,0.7,1.6,0.9,2.5,0.9c1.2,0,1.8-0.5,1.8-1.3
					c0-0.4-0.1-0.7-0.3-0.9c-0.2-0.2-0.4-0.3-0.9-0.4l-1.3-0.2c-0.9-0.1-1.6-0.4-2-0.9c-0.5-0.5-0.7-1.2-0.7-2.1
					c0-1.9,1.4-3.2,3.6-3.2c1.4,0,2.5,0.4,3.4,1.2l-1.3,1.3c-0.7-0.6-1.5-0.7-2.1-0.7c-1.1,0-1.6,0.6-1.6,1.3c0,0.3,0.1,0.5,0.3,0.7
					c0.2,0.2,0.5,0.4,1,0.4l1.2,0.2c1,0.1,1.6,0.4,2,0.8c0.6,0.5,0.8,1.3,0.8,2.2C-149.1,388.7-150.8,389.9-153,389.9z"/>
				<path fill="#FFFFFF" d="M-146.3,389.8v-10.5h2v8.6h4.7v1.8L-146.3,389.8L-146.3,389.8z"/>
				<path fill="#FFFFFF" d="M-137,389.8v-10.5h2v10.5H-137z"/>
				<path fill="#FFFFFF" d="M-125.2,388.7c-0.8,0.8-1.8,1.2-3,1.2c-1.1,0-2.1-0.4-2.8-1.1c-0.5-0.5-0.7-1-0.9-1.6
					c-0.1-0.6-0.2-1.5-0.2-2.6c0-1.1,0.1-2,0.2-2.6c0.1-0.6,0.4-1.1,0.9-1.6c0.8-0.8,1.7-1.1,2.8-1.1c2.4,0,3.7,1.5,3.9,3.3h-2.1
					c-0.3-1-0.9-1.5-1.9-1.5c-0.5,0-1,0.2-1.3,0.6c-0.4,0.5-0.5,0.9-0.5,2.9c0,2.1,0.1,2.5,0.5,3c0.3,0.4,0.7,0.5,1.3,0.5
					c0.6,0,1.1-0.2,1.5-0.6c0.3-0.4,0.5-0.8,0.5-1.4v-0.4h-1.9V384h3.9v1.5C-124.2,387-124.5,387.9-125.2,388.7z"/>
				<path fill="#FFFFFF" d="M-115.8,389.8v-4.4h-3.5v4.4h-2v-10.5h2v4.3h3.5v-4.3h2v10.5H-115.8z"/>
				<path fill="#FFFFFF" d="M-106.5,381.2v8.6h-2v-8.6h-2.7v-1.8h7.5v1.8H-106.5z"/>
			</g>
		</g>
	</g>
</g>
</svg>
